Coordinates
version=1
nRows=16
nColumns=63
inDegrees=yes

Units are S.I. units (second, meters, Newtons, ...)
If the header above contains a line with 'inDegrees', this indicates whether rotational values are in degrees (yes) or radians (no).

endheader
time	pelvis_tilt	pelvis_list	pelvis_rotation	pelvis_tx	pelvis_ty	pelvis_tz	hip_flexion_r	hip_adduction_r	hip_rotation_r	knee_angle_r	knee_angle_r_beta	ankle_angle_r	subtalar_angle_r	mtp_angle_r	hip_flexion_l	hip_adduction_l	hip_rotation_l	knee_angle_l	knee_angle_l_beta	ankle_angle_l	subtalar_angle_l	mtp_angle_l	L5_S1_Flex_Ext	L5_S1_Lat_Bending	L5_S1_axial_rotation	L4_L5_Flex_Ext	L4_L5_Lat_Bending	L4_L5_axial_rotation	L3_L4_Flex_Ext	L3_L4_Lat_Bending	L3_L4_axial_rotation	L2_L3_Flex_Ext	L2_L3_Lat_Bending	L2_L3_axial_rotation	L1_L2_Flex_Ext	L1_L2_Lat_Bending	L1_L2_axial_rotation	L1_T12_Flex_Ext	L1_T12_Lat_Bending	L1_T12_axial_rotation	Abs_r3	Abs_r2	Abs_r1	Abs_t1	Abs_t2	neck_flexion	neck_bending	neck_rotation	arm_flex_r	arm_add_r	arm_rot_r	elbow_flex_r	pro_sup_r	wrist_flex_r	wrist_dev_r	arm_flex_l	arm_add_l	arm_rot_l	elbow_flex_l	pro_sup_l	wrist_flex_l	wrist_dev_l
6.333333	3.003047	-6.646921	92.231303	0.208883	0.933602	0.597140	3.816902	-0.898232	-4.086885	6.370755	0.111191	26.603107	10.449730	0.000000	8.761221	0.581807	-2.306307	13.374349	0.233426	27.663907	4.314030	0.000000	-0.015597	-0.351403	-1.079033	-0.028966	-0.467366	-1.146472	-0.025625	-0.854402	-1.146472	-0.017826	-0.854402	-0.944153	-0.014484	-0.716582	-0.876714	-0.008912	-0.544324	-0.809274	-0.111410	-3.975145	-6.001255	0.000000	0.000000	4.826475	3.654089	-8.060230	18.281734	-16.607911	14.546976	114.169276	81.285725	-7.142737	16.363883	-7.420624	-22.246796	22.434418	50.312189	88.999936	-14.975192	3.021515
6.352941	3.054187	-6.782539	92.191755	0.208436	0.933164	0.597878	4.127816	-0.884784	-4.065244	6.578204	0.114811	26.698220	10.420003	0.000000	9.001526	0.565498	-2.282642	13.498082	0.235586	27.743591	4.198647	0.000000	-0.019242	-0.335643	-1.074912	-0.035734	-0.446405	-1.142094	-0.031612	-0.816082	-1.142094	-0.021992	-0.816082	-0.940548	-0.017868	-0.684443	-0.873366	-0.010995	-0.519911	-0.806184	-0.137443	-3.796859	-5.978340	0.000000	0.000000	4.887580	3.551084	-8.158719	20.062817	-16.658986	16.095962	115.760152	81.649781	-8.089405	16.549207	-7.614672	-22.092088	22.590404	49.891862	88.978680	-15.349043	3.280412
6.372549	3.100072	-6.927197	92.154323	0.207883	0.932681	0.598771	4.459765	-0.887894	-4.082968	6.797077	0.118631	26.801340	10.438678	0.000000	9.257049	0.569556	-2.203302	13.629494	0.237880	27.792707	3.932659	0.000000	-0.023792	-0.319480	-1.057824	-0.044185	-0.424909	-1.123938	-0.039089	-0.776784	-1.123938	-0.027192	-0.776784	-0.925596	-0.022094	-0.651484	-0.859482	-0.013595	-0.494875	-0.793368	-0.169947	-3.614024	-5.883299	0.000000	0.000000	4.949477	3.414611	-8.307795	21.884337	-16.782880	17.556391	117.355623	82.051322	-9.155749	16.729303	-7.680338	-21.937962	22.901780	49.412622	88.956252	-15.635739	3.619729
6.392157	3.157233	-7.113950	92.149786	0.207178	0.932100	0.599850	4.868769	-0.898684	-4.169165	7.073099	0.123449	26.929065	10.486406	0.000000	9.575891	0.581712	-2.052677	13.786875	0.240626	27.816830	3.545154	0.000000	-0.025096	-0.301424	-1.028699	-0.046605	-0.400894	-1.092992	-0.041230	-0.732882	-1.092992	-0.028682	-0.732882	-0.900111	-0.023304	-0.614663	-0.835818	-0.014340	-0.466906	-0.771524	-0.179257	-3.409767	-5.721313	0.000000	0.000000	5.074512	3.281399	-8.524681	23.670238	-17.012101	18.860788	118.943598	82.488733	-10.312619	16.926387	-7.611372	-21.761323	23.332793	48.864167	88.935125	-15.839422	3.977867
6.411765	3.229325	-7.351384	92.183994	0.206307	0.931428	0.601076	5.355873	-0.920751	-4.379908	7.396993	0.129102	27.072061	10.624749	0.000000	9.963717	0.596587	-1.858165	13.964866	0.243733	27.813245	3.102131	0.000000	-0.021397	-0.281794	-0.979449	-0.039737	-0.374786	-1.040664	-0.035154	-0.685154	-1.040664	-0.024455	-0.685154	-0.857018	-0.019870	-0.574634	-0.795802	-0.012227	-0.436499	-0.734587	-0.152840	-3.187708	-5.447400	0.000000	0.000000	5.265658	3.137209	-8.893801	25.305397	-17.387398	19.879794	120.491385	82.692732	-11.361792	17.133623	-7.357952	-21.563619	24.011195	48.168275	88.895728	-16.070014	4.096853
6.431373	3.299101	-7.616115	92.267386	0.205282	0.930698	0.602462	5.880960	-0.965783	-4.695082	7.739184	0.135074	27.218263	10.816945	0.000000	10.391116	0.634859	-1.587329	14.147747	0.246925	27.760293	2.580908	0.000000	-0.016671	-0.261891	-0.922743	-0.030960	-0.348315	-0.980414	-0.027389	-0.636762	-0.980414	-0.019053	-0.636762	-0.807400	-0.015481	-0.534049	-0.749728	-0.009526	-0.405670	-0.692057	-0.119080	-2.962566	-5.132017	0.000000	0.000000	5.522203	2.985625	-9.287206	26.823131	-17.894145	20.686916	121.926175	82.840299	-12.420547	17.399610	-6.995022	-21.359649	24.770896	47.429258	88.891233	-16.238858	4.126604
6.450980	3.365268	-7.907402	92.394728	0.204143	0.929942	0.603983	6.443819	-1.034914	-5.133880	8.106734	0.141489	27.373107	11.095347	0.000000	10.854755	0.685967	-1.322310	14.331216	0.250127	27.668559	2.097697	0.000000	-0.010082	-0.243061	-0.854538	-0.018724	-0.323271	-0.907946	-0.016564	-0.590977	-0.907946	-0.011523	-0.590977	-0.747721	-0.009363	-0.495649	-0.694312	-0.005761	-0.376501	-0.640903	-0.072018	-2.749550	-4.752683	0.000000	0.000000	5.817990	2.830017	-9.747382	28.132175	-18.515831	21.181341	123.230496	82.657673	-13.335651	17.800058	-6.492766	-21.169103	25.748227	46.596764	88.852450	-16.475914	3.918583
6.470588	3.437488	-8.222946	92.568477	0.202912	0.929184	0.605622	7.032977	-1.114153	-5.662954	8.480217	0.148008	27.520153	11.419375	0.000000	11.355978	0.734974	-1.095958	14.522839	0.253471	27.553092	1.720102	0.000000	-0.001203	-0.224638	-0.783668	-0.002234	-0.298768	-0.832647	-0.001977	-0.546184	-0.832647	-0.001375	-0.546184	-0.685709	-0.001117	-0.458081	-0.636730	-0.000687	-0.347964	-0.587751	-0.008594	-2.541145	-4.358525	0.000000	0.000000	6.134566	2.683729	-10.237182	29.213992	-19.225787	21.406218	124.355034	81.902698	-14.096500	18.255361	-5.919566	-20.973643	26.799431	45.702454	88.777854	-16.723381	3.472735
6.490196	3.490639	-8.554397	92.769613	0.201658	0.928466	0.607379	7.648614	-1.226817	-6.275711	8.872915	0.154862	27.666344	11.801168	0.000000	11.873534	0.808216	-0.887021	14.696876	0.256509	27.384713	1.390141	0.000000	0.008588	-0.210579	-0.710613	0.015948	-0.280071	-0.755027	0.014109	-0.512003	-0.755027	0.009815	-0.512003	-0.621787	0.007975	-0.429414	-0.577373	0.004907	-0.326188	-0.532960	0.061341	-2.382117	-3.952219	0.000000	0.000000	6.463698	2.575968	-10.756036	30.023374	-19.943167	21.337370	125.297443	80.761962	-14.633095	18.753600	-5.287547	-20.802493	27.912239	44.777841	88.656550	-16.984614	2.778083
6.509804	3.539063	-8.889704	92.991642	0.200424	0.927805	0.609231	8.270531	-1.350268	-6.915969	9.264362	0.161694	27.797430	12.194566	0.000000	12.396304	0.885814	-0.703835	14.858323	0.259327	27.179324	1.122962	0.000000	0.018070	-0.199691	-0.646175	0.033557	-0.265589	-0.686560	0.029687	-0.485529	-0.686560	0.020652	-0.485529	-0.565403	0.016780	-0.407210	-0.525017	0.010325	-0.309322	-0.484631	0.129070	-2.258948	-3.593829	0.000000	0.000000	6.791456	2.518957	-11.256784	30.591039	-20.621749	21.059472	126.019168	79.292068	-14.872613	19.215122	-4.691301	-20.626094	28.880370	43.900549	88.503561	-17.231405	1.932037
6.529412	3.572137	-9.223226	93.221094	0.199289	0.927210	0.611111	8.885948	-1.484106	-7.541293	9.642735	0.168297	27.909457	12.563062	0.000000	12.908276	0.963666	-0.609435	14.996663	0.261741	26.940936	0.989756	0.000000	0.027248	-0.194145	-0.595271	0.050603	-0.258213	-0.632475	0.044767	-0.472044	-0.632475	0.031142	-0.472044	-0.520862	0.025303	-0.395900	-0.483657	0.015570	-0.300730	-0.446453	0.194633	-2.196206	-3.310716	0.000000	0.000000	7.112023	2.533679	-11.732339	30.930804	-21.216670	20.627176	126.517852	77.436283	-14.718306	19.620357	-4.189058	-20.454942	29.626954	43.121955	88.279387	-17.437157	0.953207
6.549020	3.583719	-9.545756	93.444333	0.198263	0.926682	0.612954	9.476688	-1.629025	-8.102098	9.991843	0.174391	28.004945	12.877616	0.000000	13.393335	1.039944	-0.654367	15.108130	0.263687	26.691408	1.058326	0.000000	0.035070	-0.194440	-0.551831	0.065128	-0.258606	-0.586320	0.057616	-0.472763	-0.586320	0.040081	-0.472763	-0.482852	0.032566	-0.396503	-0.448363	0.020039	-0.301188	-0.413873	0.250501	-2.199550	-3.069118	0.000000	0.000000	7.433413	2.620543	-12.221363	31.046973	-21.739028	20.040864	126.851947	75.125504	-14.064763	19.972322	-3.778909	-20.301044	30.145568	42.464252	88.037497	-17.553404	-0.074034
6.568627	3.596134	-9.855035	93.660971	0.197382	0.926206	0.614716	10.040076	-1.760141	-8.597220	10.311433	0.179968	28.084460	13.149326	0.000000	13.855756	1.094784	-0.788919	15.207612	0.265423	26.448017	1.261182	0.000000	0.041253	-0.197449	-0.524682	0.076612	-0.262607	-0.557474	0.067775	-0.480077	-0.557474	0.047149	-0.480077	-0.459096	0.038308	-0.402637	-0.426304	0.023572	-0.305848	-0.393511	0.294669	-2.233579	-2.918121	0.000000	0.000000	7.756509	2.736694	-12.683002	31.013266	-22.200508	19.425975	127.035409	72.870985	-13.089557	20.090677	-3.541195	-20.120951	30.306763	41.959588	87.779167	-17.656242	-1.159462
6.588235	3.574186	-10.152119	93.870977	0.196661	0.925760	0.616284	10.556584	-1.909198	-9.007739	10.574098	0.184553	28.161363	13.370739	0.000000	14.279696	1.164850	-0.997063	15.270053	0.266513	26.226984	1.613279	0.000000	0.047009	-0.206865	-0.506914	0.087300	-0.275130	-0.538596	0.077231	-0.502971	-0.538596	0.053727	-0.502971	-0.443550	0.043653	-0.421839	-0.411868	0.026861	-0.320434	-0.380186	0.335781	-2.340097	-2.819304	0.000000	0.000000	8.086302	2.901374	-13.140802	30.831224	-22.613682	18.763529	127.145086	70.947310	-11.812862	20.028490	-3.450560	-19.954451	30.196749	41.605873	87.509703	-17.683179	-2.264274
6.607843	3.579071	-10.433044	94.048295	0.196080	0.925329	0.617646	11.032409	-2.012240	-9.342869	10.790987	0.188338	28.229940	13.576004	0.000000	14.675868	1.190303	-1.246327	15.319945	0.267383	26.062184	2.036860	0.000000	0.052610	-0.213733	-0.478156	0.097702	-0.284264	-0.508041	0.086433	-0.519669	-0.508041	0.060128	-0.519669	-0.418387	0.048853	-0.435843	-0.388502	0.030061	-0.331072	-0.358617	0.375787	-2.417785	-2.659361	0.000000	0.000000	8.382628	3.034114	-13.665413	30.512303	-23.071479	18.039400	127.253632	69.610086	-10.470234	19.815519	-3.393665	-19.794805	30.052008	41.338422	87.237430	-17.750202	-3.268075
6.627451	3.590003	-10.693341	94.204441	0.195621	0.924900	0.618755	11.451376	-2.093851	-9.622109	10.953219	0.191170	28.302655	13.789720	0.000000	15.035431	1.200129	-1.480081	15.349194	0.267894	25.969987	2.504552	0.000000	0.058688	-0.219723	-0.442559	0.108989	-0.292231	-0.470219	0.096418	-0.534234	-0.470219	0.067074	-0.534234	-0.387239	0.054498	-0.448059	-0.359579	0.033534	-0.340351	-0.331920	0.419202	-2.485549	-2.461382	0.000000	0.000000	8.645713	3.140983	-14.217202	30.113679	-23.568806	17.307919	127.372316	68.909754	-9.240295	19.548216	-3.358334	-19.653270	29.917049	41.115758	87.008440	-17.816135	-4.175937
